<svg xmlns="http://www.w3.org/2000/svg" version="1.1" xmlns:xlink="http://www.w3.org/1999/xlink" xmlns:svgjs="http://svgjs.dev/svgjs" width="1000" height="1000" viewBox="0 0 1000 1000"><rect width="1000" height="1000" fill="#000000"></rect><g transform="matrix(0.7,0,0,0.7,150.0000000000001,106.25)"><svg viewBox="0 0 320 360" data-background-color="#a40b24" preserveAspectRatio="xMidYMid meet" height="1125" width="1000" xmlns="http://www.w3.org/2000/svg" xmlns:xlink="http://www.w3.org/1999/xlink"><defs></defs><g id="tight-bounds" transform="matrix(1,0,0,1,0,0)"><svg viewBox="0 0 320 360" height="360" width="320"><g><svg></svg></g><g><svg viewBox="0 0 320 360" height="360" width="320"><g><path d="M320 204.145c-0.08-8.44-5.414-15.128-5.494-23.568-0.04-8.44 5.215-18.631 5.136-27.071-2.667-8.002-9.833-12.7-12.501-20.702-2.667-8.002-0.836-19.348-3.463-27.35-5.016-6.808-13.297-9.037-18.274-15.805-5.016-6.808-6.768-18.154-11.744-24.921-6.847-4.897-15.407-4.499-22.294-9.396-6.847-4.897-12.023-15.168-18.91-20.065-8.042-2.548-16.044 0.518-24.086-2.07-8.042-2.548-16.123-10.709-24.165-13.257-8.44 0.08-15.128 5.414-23.568 5.494-8.44 0.04-18.631-5.215-27.071-5.135-8.002 2.667-12.7 9.833-20.702 12.5-8.002 2.667-19.348 0.836-27.35 3.504-6.808 5.016-9.037 13.297-15.805 18.273-6.808 5.016-18.154 6.768-24.922 11.784-4.897 6.847-4.499 15.407-9.395 22.294-4.897 6.847-15.168 12.023-20.065 18.91-2.548 8.042 0.478 16.044-2.07 24.086-2.548 8.042-10.709 16.123-13.257 24.165 0.04 8.44 5.414 15.128 5.494 23.568 0.04 8.44-5.215 18.631-5.136 27.071 2.667 8.002 9.833 12.7 12.501 20.702 2.667 8.002 0.836 19.348 3.503 27.35 5.016 6.808 13.297 9.037 18.273 15.845 5.016 6.808 6.768 18.154 11.745 24.921 6.847 4.897 15.407 4.499 22.294 9.396 6.847 4.897 12.023 15.168 18.91 20.065 8.042 2.548 16.044-0.478 24.086 2.07 8.042 2.548 16.123 10.709 24.165 13.257 8.44-0.08 15.128-5.414 23.568-5.494 8.44-0.04 18.631 5.215 27.071 5.135 8.002-2.667 12.7-9.833 20.702-12.5 8.002-2.667 19.348-0.836 27.35-3.504 6.808-5.016 9.037-13.297 15.845-18.273 6.808-5.016 18.154-6.768 24.921-11.744 4.897-6.847 4.499-15.407 9.396-22.294 4.897-6.847 15.168-12.023 20.064-18.91 2.548-8.042-0.478-16.044 2.071-24.086 2.468-8.121 10.63-16.203 13.177-24.245zM305.987 227.395c-3.623 7.126-12.501 13.456-16.164 20.582-3.623 7.126-2.03 15.088-5.653 22.215-5.653 5.653-16.044 8.918-21.737 14.57-5.653 5.653-6.569 13.735-12.261 19.388-7.126 3.623-18.034 3.503-25.161 7.166-7.126 3.623-10.51 11.028-17.636 14.651-7.922 1.234-18.233-2.229-26.156-0.996-7.922 1.234-13.416 7.246-21.299 8.48-7.922-1.234-16.641-7.763-24.563-8.997-7.922-1.274-14.969 2.747-22.891 1.473-7.126-3.623-13.456-12.54-20.582-16.163-7.126-3.623-15.088-2.03-22.255-5.654-5.653-5.653-8.918-16.044-14.571-21.736-5.653-5.653-13.735-6.609-19.387-12.262-3.623-7.126-3.503-18.034-7.166-25.161-3.623-7.126-11.028-10.51-14.651-17.636-1.234-7.922 2.229-18.233 0.995-26.156-1.274-7.922-7.246-13.416-8.479-21.298 1.274-7.922 7.763-16.641 8.997-24.564 1.234-7.922-2.747-14.969-1.473-22.891 3.623-7.126 12.54-13.456 16.163-20.582 3.623-7.126 2.03-15.088 5.653-22.254 5.653-5.653 16.044-8.918 21.737-14.571 5.653-5.653 6.609-13.735 12.262-19.388 7.126-3.623 18.034-3.503 25.16-7.166 7.126-3.623 10.51-11.028 17.637-14.651 7.922-1.234 18.233 2.229 26.155 0.996 7.922-1.234 13.416-7.246 21.299-8.48 7.922 1.234 16.641 7.763 24.564 8.997 7.922 1.274 14.969-2.747 22.891-1.473 7.126 3.623 13.456 12.54 20.582 16.163 7.126 3.623 15.088 2.03 22.254 5.654 5.653 5.653 8.918 16.044 14.571 21.736 5.653 5.653 13.735 6.609 19.388 12.262 3.623 7.126 3.503 18.034 7.166 25.161 3.623 7.126 11.028 10.51 14.65 17.636 1.274 7.922-2.229 18.233-0.995 26.156 1.234 7.922 7.246 13.416 8.48 21.298-1.234 7.922-7.763 16.641-8.997 24.564-1.234 7.922 2.747 15.009 1.473 22.931z" fill="#1d1b1b" data-fill-palette-color="tertiary"></path></g><g transform="matrix(1,0,0,1,48,152.46941044759205)"><svg viewBox="0 0 224 55.061179104815864" height="55.061179104815864" width="224"><g><svg viewBox="0 0 224 55.061179104815864" height="55.061179104815864" width="224"><g transform="matrix(1,0,0,1,0,34.03001763172804)"><svg viewBox="0 0 224 21.031161473087817" height="21.031161473087817" width="224"><g><svg viewBox="0 0 224 21.031161473087817" height="21.031161473087817" width="224"><g><svg viewBox="0 0 224 21.031161473087817" height="21.031161473087817" width="224"><g transform="matrix(1,0,0,1,0,0)"><svg width="224" viewBox="1 -33.900001525878906 370.6199951171875 34.80000305175781" height="21.031161473087817" data-palette-color="#1d1b1b"><path d="M16.95 0.9L16.95 0.9Q13.15 0.9 10.23-0.45 7.3-1.8 5.68-4.73 4.05-7.65 4.05-12.45L4.05-12.45 4.05-29.7Q4.05-31.6 2.1-32.2L2.1-32.2 1-32.5 1-33 14.85-33 14.85-32.5 13.4-32.1Q11.55-31.65 11.55-29.6L11.55-29.6 11.55-11.15Q11.55-6.5 13.5-4.28 15.45-2.05 19.1-2.05L19.1-2.05Q22.9-2.05 25.13-4.4 27.35-6.75 27.35-11.05L27.35-11.05 27.35-29.4Q27.35-30.4 27.03-31.18 26.7-31.95 25.7-32.2L25.7-32.2 24.45-32.5 24.45-33 31.45-33 31.45-32.5 30.1-32.15Q29.15-31.95 28.85-31.2 28.55-30.45 28.55-29.45L28.55-29.45 28.55-11.15Q28.55-7.5 27.1-4.78 25.65-2.05 23.05-0.58 20.45 0.9 16.95 0.9ZM41.8 0L34.2 0 34.2-0.5 35.85-1Q36.75-1.25 37.15-1.98 37.55-2.7 37.55-3.7L37.55-3.7 37.55-27.75Q37-28.95 36.67-29.55 36.35-30.15 35.95-30.58 35.55-31 34.85-31.65L34.85-31.65 34-32.5 34-33 42.85-33 59.45-10.35 59.45-29.2Q59.45-30.2 59.12-31 58.8-31.8 57.8-32.05L57.8-32.05 56.15-32.5 56.15-33 63.3-33 63.3-32.5 61.95-32.05Q61.05-31.75 60.85-31 60.65-30.25 60.65-29.25L60.65-29.25 60.65 0.15 57.85 0.15 38.75-26.1 38.75-3.7Q38.75-2.7 39.05-2 39.35-1.3 40.3-1L40.3-1 41.8-0.5 41.8 0ZM79.05 0L66.19 0 66.19-0.5 67.19-0.9Q68.19-1.25 68.52-1.85 68.84-2.45 68.84-3.45L68.84-3.45 68.84-29.55Q68.84-30.55 68.55-31.15 68.25-31.75 67.19-32.1L67.19-32.1 66.19-32.5 66.19-33 79.05-33 79.05-32.5 78.05-32.1Q77.05-31.75 76.72-31.15 76.39-30.55 76.39-29.55L76.39-29.55 76.39-3.45Q76.39-2.45 76.72-1.88 77.05-1.3 78.05-0.9L78.05-0.9 79.05-0.5 79.05 0ZM103.69 0L87.94 0 87.94-0.5 89.99-1Q92.04-1.45 92.04-3.5L92.04-3.5 92.04-32 87.79-32Q85.94-32 85.14-31.03 84.34-30.05 83.44-28.35L83.44-28.35 81.64-24.85 81.14-24.85 81.39-33 110.24-33 110.44-24.85 109.94-24.85 108.14-28.35Q107.29-30.05 106.49-31.03 105.69-32 103.84-32L103.84-32 99.59-32 99.59-3.5Q99.59-1.45 101.64-1L101.64-1 103.69-0.5 103.69 0ZM137.54 0L112.59 0 112.59-0.5 113.74-0.95Q114.59-1.3 114.92-1.88 115.24-2.45 115.24-3.45L115.24-3.45 115.24-29.55Q115.24-30.55 114.97-31.13 114.69-31.7 113.74-32.05L113.74-32.05 112.59-32.5 112.59-33 136.54-33 136.84-25.3 136.34-25.3 134.19-30Q133.74-30.9 133.24-31.45 132.74-32 131.74-32L131.74-32 122.74-32 122.74-17.55 128.09-17.55Q129.09-17.55 129.62-18.07 130.14-18.6 130.54-19.5L130.54-19.5 131.54-21.5 132.04-21.5 132.04-12.5 131.54-12.5 130.54-14.6Q130.09-15.5 129.59-16.03 129.09-16.55 128.09-16.55L128.09-16.55 122.74-16.55 122.74-1 132.84-1Q133.84-1 134.39-1.53 134.94-2.05 135.29-3L135.29-3 137.34-7.7 137.84-7.7 137.54 0ZM152.64 0L140.34 0 140.34-0.5 141.39-0.9Q142.99-1.55 142.99-3.45L142.99-3.45 142.99-29.55Q142.99-31.55 141.39-32.1L141.39-32.1 140.34-32.5 140.34-33 153.54-33Q158.84-33 162.66-31.03 166.49-29.05 168.56-25.38 170.64-21.7 170.64-16.55L170.64-16.55Q170.64-11.3 168.39-7.6 166.14-3.9 162.11-1.95 158.09 0 152.64 0L152.64 0ZM150.49-32L150.49-1 152.64-1Q156.24-1 158.44-2.43 160.64-3.85 161.66-7.23 162.69-10.6 162.69-16.5L162.69-16.5Q162.69-22.4 161.66-25.78 160.64-29.15 158.49-30.58 156.34-32 152.84-32L152.84-32 150.49-32ZM200.83 0.9L200.83 0.9Q195.98 0.9 192.06-1.07 188.13-3.05 185.83-6.95 183.53-10.85 183.53-16.5L183.53-16.5Q183.53-20.8 184.93-24.05 186.33-27.3 188.76-29.5 191.18-31.7 194.36-32.8 197.53-33.9 201.08-33.9L201.08-33.9Q203.93-33.9 206.33-33.25 208.73-32.6 210.83-31.45L210.83-31.45 211.03-25.3 210.53-25.3 208.03-29.3Q207.53-30.25 206.93-31.03 206.33-31.8 205.43-32.2L205.43-32.2Q204.68-32.55 203.96-32.73 203.23-32.9 202.13-32.9L202.13-32.9Q199.23-32.9 196.86-31.35 194.48-29.8 193.06-26.23 191.63-22.65 191.63-16.45L191.63-16.45Q191.63-10.3 192.98-6.73 194.33-3.15 196.66-1.63 198.98-0.1 201.88-0.1L201.88-0.1Q203.48-0.1 204.43-0.33 205.38-0.55 206.33-1L206.33-1Q207.28-1.4 207.78-2.18 208.28-2.95 208.68-3.85L208.68-3.85 210.88-8.75 211.38-8.75 211.23-1.6Q209.13-0.5 206.53 0.2 203.93 0.9 200.83 0.9ZM219.98 0L213.08 0 213.08-0.5 214.33-0.95Q215.33-1.35 215.88-1.93 216.43-2.5 216.78-3.55L216.78-3.55 227.08-33.1 231.33-33.1 241.48-3.35Q241.88-2.25 242.38-1.68 242.88-1.1 243.93-0.7L243.93-0.7 244.53-0.5 244.53 0 231.83 0 231.83-0.5 232.58-0.75Q233.63-1.15 233.86-1.88 234.08-2.6 233.78-3.6L233.78-3.6 231.43-10.8 220.33-10.8 217.93-3.75Q217.58-2.65 217.71-2 217.83-1.35 218.88-0.95L218.88-0.95 219.98-0.5 219.98 0ZM226.08-27.35L220.68-11.8 231.13-11.8 226.08-27.35ZM252.78 0L246.18 0 246.18-0.5 247.18-0.85Q248.88-1.4 248.88-3.7L248.88-3.7 248.88-29.3Q248.88-30.3 248.65-30.9 248.43-31.5 247.48-31.9L247.48-31.9 246.18-32.5 246.18-33 255.83-33 265.08-8.8 273.78-33 283.63-33 283.63-32.5 282.83-32.2Q281.88-31.85 281.53-31.23 281.18-30.6 281.18-29.6L281.18-29.6 281.18-3.45Q281.18-2.45 281.43-1.9 281.68-1.35 282.63-0.95L282.63-0.95 283.63-0.5 283.63 0 271.18 0 271.18-0.5 272.23-0.95Q273.18-1.35 273.43-1.9 273.68-2.45 273.68-3.45L273.68-3.45 273.68-14.7 273.78-29 263.33 0 260.83 0 249.93-28.65 250.08-16.2 250.08-3.6Q250.08-2.5 250.4-1.83 250.73-1.15 251.68-0.85L251.68-0.85 252.78-0.5 252.78 0ZM299.43 0L285.83 0 285.83-0.5 286.83-0.85Q287.83-1.15 288.15-1.75 288.48-2.35 288.48-3.35L288.48-3.35 288.48-29.55Q288.48-30.55 288.13-31.15 287.78-31.75 286.78-32.1L286.78-32.1 285.83-32.5 285.83-33 297.98-33Q305.43-33 308.75-30.28 312.08-27.55 312.08-23.1L312.08-23.1Q312.08-20.25 310.7-17.88 309.33-15.5 306.18-14.1 303.03-12.7 297.68-12.7L297.68-12.7 295.98-12.7 295.98-3.5Q295.98-1.55 297.93-0.95L297.93-0.95 299.43-0.5 299.43 0ZM295.98-32L295.98-13.7 297.88-13.7Q300.33-13.7 301.88-14.5 303.43-15.3 304.18-17.3 304.93-19.3 304.93-22.85L304.93-22.85Q304.93-26.45 304.1-28.45 303.28-30.45 301.68-31.23 300.08-32 297.68-32L297.68-32 295.98-32ZM339.02 0L314.07 0 314.07-0.5 315.22-0.95Q316.07-1.3 316.4-1.88 316.72-2.45 316.72-3.45L316.72-3.45 316.72-29.55Q316.72-30.55 316.45-31.13 316.17-31.7 315.22-32.05L315.22-32.05 314.07-32.5 314.07-33 338.02-33 338.32-25.3 337.82-25.3 335.67-30Q335.22-30.9 334.72-31.45 334.22-32 333.22-32L333.22-32 324.22-32 324.22-17.55 329.57-17.55Q330.57-17.55 331.1-18.07 331.62-18.6 332.02-19.5L332.02-19.5 333.02-21.5 333.52-21.5 333.52-12.5 333.02-12.5 332.02-14.6Q331.57-15.5 331.07-16.03 330.57-16.55 329.57-16.55L329.57-16.55 324.22-16.55 324.22-1 334.32-1Q335.32-1 335.87-1.53 336.42-2.05 336.77-3L336.77-3 338.82-7.7 339.32-7.7 339.02 0ZM354.62 0L341.82 0 341.82-0.5 342.87-0.85Q343.87-1.2 344.17-1.78 344.47-2.35 344.47-3.4L344.47-3.4 344.47-29.55Q344.47-30.55 344.2-31.13 343.92-31.7 342.97-32.05L342.97-32.05 341.82-32.5 341.82-33 356.12-33Q362.02-33 365.17-30.78 368.32-28.55 368.32-24.6L368.32-24.6Q368.32-22.4 366.67-20.2 365.02-18 361.47-16.8L361.47-16.8 368.42-3Q368.87-2.15 369.45-1.63 370.02-1.1 370.97-0.7L370.97-0.7 371.62-0.45 371.62 0 362.67 0 355.27-15.75 351.87-15.75 351.87-3.4Q351.87-2.45 352.17-1.85 352.47-1.25 353.42-0.95L353.42-0.95 354.62-0.5 354.62 0ZM351.87-32L351.87-16.75 354.27-16.75Q357.87-16.75 359.47-18.68 361.07-20.6 361.07-24.4L361.07-24.4Q361.07-28.25 359.57-30.13 358.07-32 354.52-32L354.52-32 351.87-32Z" opacity="1" transform="matrix(1,0,0,1,0,0)" fill="#ffffff" class="undefined-text-0" data-fill-palette-color="primary" id="text-0"></path></svg></g></svg></g></svg></g></svg></g><g transform="matrix(1,0,0,1,79.56391142542746,0)"><svg viewBox="0 0 64.87217714914507 29.065065155807364" height="29.065065155807364" width="64.87217714914507"><g><svg version="1.0" xmlns="http://www.w3.org/2000/svg" xmlns:xlink="http://www.w3.org/1999/xlink" x="8" y="0" viewBox="0 0 99.9990005493164 59.471004486083984" enable-background="new 0 0 100 59.471" xml:space="preserve" width="48.872177149145074" height="29.065065155807364" class="icon-icon-0" data-fill-palette-color="accent" id="icon-0"><path d="M41.283 22.673c1.856 0 3.367-1.522 3.367-3.369v-5.62c0-1.846-1.511-3.368-3.367-3.368H15.915c-1.857 0-3.367 1.522-3.367 3.368v5.62c0 1.846 1.51 3.369 3.367 3.369H41.283zM74.764 22.647c1.869 0 3.367-1.521 3.367-3.367v-5.596c0-1.846-1.496-3.368-3.367-3.368H63.056c-1.857 0-3.367 1.522-3.367 3.368v5.596c0 1.845 1.51 3.367 3.367 3.367H74.764zM31.229 49.383H12.056c-6.651 0-12.032-5.394-12.032-12.032L0 16.333C0 7.309 7.31 0 16.321 0h55.508c9.012 0 16.333 7.309 16.333 16.333l0.022 29.669h8.498c1.833 0 3.317 1.522 3.317 3.355H56.896c-0.42-6.746-5.979-12.09-12.833-12.09C37.209 37.268 31.648 42.612 31.229 49.383" fill="#ffffff" data-fill-palette-color="accent"></path><path d="M44.064 54.213c2.229 0 4.027-1.786 4.027-4.016s-1.798-4.027-4.027-4.027c-2.217 0-4.015 1.798-4.015 4.027S41.847 54.213 44.064 54.213M34.8 50.198c0-5.13 4.135-9.275 9.264-9.275s9.263 4.146 9.263 9.275c0 5.116-4.134 9.273-9.263 9.273C38.934 59.471 34.8 55.315 34.8 50.198" fill="#ffffff" data-fill-palette-color="accent"></path></svg></g></svg></g><g><rect width="79.56391142542746" height="1.8966118458016998" y="26.168453310005667" x="144.43608857457252" fill="#ffffff" data-fill-palette-color="accent"></rect><rect width="79.56391142542746" height="1.8966118458016998" y="26.168453310005667" x="0" fill="#ffffff" data-fill-palette-color="accent"></rect><rect width="79.56391142542746" height="1.8966118458016998" y="22.375229618402265" x="144.43608857457252" fill="#ffffff" data-fill-palette-color="accent"></rect><rect width="79.56391142542746" height="1.8966118458016998" y="22.375229618402265" x="0" fill="#ffffff" data-fill-palette-color="accent"></rect></g></svg></g></svg></g></svg></g></svg><rect width="320" height="360" fill="none" stroke="none" visibility="hidden"></rect></g></svg></g></svg>